<svg
          version="1.0"
          xmlns="http://www.w3.org/2000/svg"
          width="118.000000pt"
          height="42.000000pt"
          alt="TikTard"
          viewBox="0 0 500.000000 146.000000"
          preserveAspectRatio="xMidYMid meet"
        >
          <g
            transform="translate(0.000000,146.000000) scale(0.100000,-0.100000)"
            fill="#000000"
            stroke="none"
          >
            <path
              d="M623 1281 c-42 -27 -47 -50 -34 -173 6 -57 16 -185 22 -285 l12 -183
182 0 c134 0 185 -3 192 -12 6 -7 41 -85 78 -173 37 -88 70 -164 75 -168 6 -7
185 54 198 67 2 2 -4 20 -12 40 l-15 36 -53 -20 c-29 -11 -55 -16 -59 -12 -4
4 -39 79 -77 167 l-69 160 -177 3 -176 2 0 30 0 30 125 0 125 0 0 50 0 50
-129 0 -128 0 -7 46 c-3 26 -6 72 -6 103 0 53 2 57 29 68 16 6 37 25 46 43 47
91 -55 185 -142 131z"
            />
            <path
              d="M1550 950 l0 -80 95 0 95 0 0 -305 0 -305 90 0 90 0 2 303 3 302 76
3 75 3 26 79 26 80 -289 0 -289 0 0 -80z"
            />
            <path
              d="M2193 1006 c-22 -19 -28 -33 -28 -64 0 -49 25 -79 70 -88 60 -11 104
27 105 89 0 77 -87 114 -147 63z"
            />
            <path
              d="M2420 645 l0 -385 90 0 90 0 0 98 c0 96 1 99 30 127 35 34 21 47 132
-117 l73 -107 98 -1 c76 0 97 3 91 12 -4 7 -61 91 -127 186 l-120 174 114 108
114 109 -110 0 -110 1 -85 -85 c-47 -47 -88 -85 -92 -85 -5 0 -8 79 -8 175 l0
175 -90 0 -90 0 0 -385z"
            />
            <path
              d="M3080 950 l0 -80 90 0 90 0 2 -302 3 -303 93 -3 92 -3 0 306 0 305
78 0 77 0 19 63 c10 34 21 70 23 80 5 16 -13 17 -281 17 l-286 0 0 -80z"
            />
            <path
              d="M518 840 c-58 -39 -100 -90 -135 -167 -23 -49 -28 -72 -28 -143 0
-75 4 -93 32 -152 112 -237 405 -294 597 -118 23 22 51 54 60 73 18 33 18 33
-14 97 l-32 63 -18 -52 c-25 -74 -65 -117 -145 -156 -102 -50 -229 -24 -307
63 -52 57 -70 105 -70 182 1 81 20 128 79 191 l46 49 -9 51 -9 50 -47 -31z"
            />
            <path
              d="M3747 823 c-8 -13 -187 -479 -187 -486 0 -4 13 -7 29 -7 28 0 32 5
58 75 l28 75 101 0 101 0 29 -75 c28 -72 30 -75 61 -75 l33 0 -24 63 c-13 34
-56 146 -96 250 -71 181 -74 187 -101 187 -15 0 -30 -3 -32 -7z m67 -167 c20
-54 36 -102 36 -107 0 -5 -34 -9 -75 -9 -41 0 -75 2 -75 4 0 2 16 46 35 96 19
50 35 99 35 108 0 26 7 11 44 -92z"
            />
            <path
              d="M4070 581 l0 -251 30 0 30 0 0 105 0 105 50 0 50 0 61 -105 c59 -101
63 -105 95 -105 19 0 34 2 34 5 0 3 -29 53 -65 111 -36 59 -65 107 -65 108 0
1 16 10 34 20 85 46 87 181 3 231 -25 16 -56 20 -144 23 l-113 4 0 -251z m213
178 c12 -7 25 -17 29 -23 11 -16 10 -84 -2 -106 -13 -24 -62 -40 -126 -40
l-54 0 0 88 c0 49 3 92 8 96 10 11 117 -1 145 -15z"
            />
            <path
              d="M4500 581 l0 -251 98 0 c107 0 172 15 223 50 95 68 110 288 26 378
-48 52 -93 66 -224 70 l-123 4 0 -251z m253 172 c65 -38 97 -122 83 -217 -14
-94 -76 -143 -195 -153 l-71 -6 0 203 0 203 75 -6 c47 -3 88 -13 108 -24z"
            />
            <path
              d="M2167 783 c-4 -3 -7 -123 -7 -265 l0 -258 90 0 90 0 0 265 0 265 -83
0 c-46 0 -87 -3 -90 -7z"
            />
          </g>
        </svg>
